<svg width="24" height="24" viewBox="0 0 24 24" fill="none" xmlns="http://www.w3.org/2000/svg">
<path d="M12.0001 20.3996C16.5954 20.3996 20.4001 16.5867 20.4001 11.9996C20.4001 7.40432 16.5872 3.59961 11.9919 3.59961C7.4048 3.59961 3.6001 7.40432 3.6001 11.9996C3.6001 16.5867 7.41304 20.3996 12.0001 20.3996ZM12.0001 18.9996C8.11304 18.9996 5.00833 15.8867 5.00833 11.9996C5.00833 8.11255 8.1048 4.99961 11.9919 4.99961C15.8789 4.99961 18.9919 8.11255 19.0001 11.9996C19.0083 15.8867 15.8872 18.9996 12.0001 18.9996ZM11.0942 15.9114C11.366 15.9114 11.5966 15.7796 11.7613 15.5243L15.5248 9.60314C15.6154 9.44667 15.7225 9.25726 15.7225 9.07608C15.7225 8.71373 15.393 8.4749 15.0472 8.4749C14.8413 8.4749 14.6354 8.59843 14.4789 8.84549L11.0613 14.322L9.43892 12.2302C9.24127 11.9667 9.0601 11.8926 8.82951 11.8926C8.47539 11.8926 8.19539 12.1808 8.19539 12.5514C8.19539 12.7243 8.26951 12.9055 8.3848 13.062L10.3942 15.5243C10.6001 15.7961 10.8225 15.9114 11.0942 15.9114Z" fill="#480D94"/>
</svg>
