<svg width="14" height="14" viewBox="0 0 14 14" fill="none" xmlns="http://www.w3.org/2000/svg">
<path d="M6.99662 14C10.8333 14 14 10.8317 14 7C14 3.16828 10.8265 0 6.98985 0C3.15998 0 0 3.16828 0 7C0 10.8317 3.16675 14 6.99662 14ZM6.23876 10.3443C5.98163 10.3443 5.77187 10.236 5.58241 9.98549L3.9246 7.97485C3.8028 7.81915 3.7419 7.66344 3.7419 7.4942C3.7419 7.14217 4.01933 6.85783 4.37119 6.85783C4.58096 6.85783 4.74335 6.9323 4.91928 7.15571L6.21846 8.80077L9.00628 4.33269C9.15515 4.09574 9.34461 3.98066 9.56114 3.98066C9.90623 3.98066 10.2175 4.2176 10.2175 4.5764C10.2175 4.73211 10.1363 4.90135 10.0416 5.05029L6.86805 9.98549C6.71919 10.2224 6.49589 10.3443 6.23876 10.3443Z" fill="#480D94"/>
</svg>
