<svg width="224" height="103" viewBox="0 0 224 103" fill="none" xmlns="http://www.w3.org/2000/svg">
<path d="M2.13754 132.618C-0.712513 120.477 -0.712513 107.84 2.13754 95.6983C4.88772 83.7305 10.9849 72.7916 19.7175 64.1583C30.6275 53.6083 44.9275 49.2483 58.2175 42.7083C64.3275 39.7083 70.1475 36.3183 75.0275 31.5283C79.3675 27.2683 81.1975 22.0783 84.1175 16.8983C91.5875 3.66834 106.388 -1.58167 121.008 0.40833C134.86 2.319 147.659 8.85618 157.328 18.9583C165.328 27.3483 171.048 41.2083 182.068 46.1483C192.378 50.7783 205.638 47.9583 216.588 48.7583C229.818 49.7583 243.488 53.0683 254.418 60.9083C278.318 78.0783 281.728 108.158 264.798 131.558C250.398 151.468 227.308 166.488 202.608 168.968C189.658 170.258 177.658 167.568 166.148 161.578C161.148 158.988 156.088 154.938 150.778 151.788C146.988 151.118 143.198 150.588 139.458 150.258C127.765 149.142 115.968 150.505 104.838 154.258C92.1675 158.678 80.3675 165.388 67.2875 168.678C47.6175 173.678 25.5875 169.848 13.2075 153.808C7.71755 148.368 4.18754 141.148 2.13754 132.618Z" fill="#F0B4AD"/>
</svg>
