<svg width="87" height="55" viewBox="0 0 87 55" fill="none" xmlns="http://www.w3.org/2000/svg">
<path d="M33.65 -4.07997C30.2831 -4.39522 26.8987 -4.48208 23.52 -4.33997C23.3639 -6.78644 23.0802 -9.22308 22.6701 -11.64C21.7801 -16.73 14.38 -15.13 14.09 -10.48C13.9748 -8.20476 13.9748 -5.92518 14.09 -3.64997C10 -3.18997 5.99005 -2.54997 2.29005 -1.83997C-0.529951 -1.29997 -0.529951 3.31003 2.29005 3.85003C6.29005 4.61003 10.59 5.28003 14.99 5.75003C15.53 9.66003 16.22 13.52 16.99 17.12C17.76 20.72 22.84 19.59 23.13 16.29C23.42 12.99 23.64 9.75003 23.74 6.36003C27.0757 6.48529 30.416 6.3951 33.74 6.09003C35.0499 6.02148 36.2828 5.44989 37.1815 4.49448C38.0803 3.53906 38.5754 2.27358 38.5638 0.961946C38.5522 -0.349689 38.0347 -1.60622 37.1192 -2.54558C36.2037 -3.48494 34.9609 -4.03461 33.65 -4.07997Z" fill="#FAB400"/>
<path d="M81.54 30.71C78.1697 30.3948 74.7819 30.3079 71.3999 30.45C71.2438 28.0035 70.9601 25.5669 70.5499 23.15C69.6699 18.06 62.2699 19.66 61.9999 24.31C61.8847 26.5852 61.8847 28.8648 61.9999 31.14C57.9099 31.6 53.89 32.24 50.2 32.95C47.38 33.49 47.38 38.1 50.2 38.64C54.2 39.4 58.4999 40.07 62.8999 40.54C63.4299 44.45 64.1299 48.32 64.8999 51.91C65.6699 55.5 70.7599 54.38 71.0499 51.08C71.3399 47.78 71.56 44.54 71.66 41.15C74.9956 41.2751 78.3359 41.1849 81.66 40.88C82.9703 40.8085 84.2024 40.2336 85.0991 39.2754C85.9957 38.3172 86.4877 37.0497 86.4722 35.7375C86.4567 34.4253 85.935 33.1698 85.016 32.233C84.097 31.2962 82.8516 30.7506 81.54 30.71Z" fill="#FAB400"/>
</svg>
