<svg width="177" height="168" viewBox="0 0 177 168" fill="none" xmlns="http://www.w3.org/2000/svg">
<path d="M26.5047 154.636C17.2236 146.305 9.99762 135.938 5.39279 124.348C0.805427 112.957 -0.447745 100.497 1.77952 88.4206C4.69702 73.527 13.9352 61.773 21.0982 48.8082C24.3952 42.8532 27.2313 36.7441 28.4957 30.024C29.6201 24.0475 28.1536 18.7433 27.587 12.824C26.1499 -2.3011 35.2894 -15.0711 48.4212 -21.7987C60.8777 -28.1523 75.1162 -30.1084 88.8246 -27.3496C100.185 -25.0412 112.803 -16.9417 124.669 -19.1906C135.774 -21.2878 145.04 -31.1837 154.48 -36.7889C165.906 -43.5338 179.013 -48.6353 192.463 -48.4536C221.888 -48.0345 241.886 -25.3075 241.378 3.57024C240.95 28.1382 230.596 53.6637 211.751 69.8224C201.865 78.2858 190.482 82.941 177.614 84.6087C172.031 85.343 165.564 84.9139 159.407 85.3662C155.915 86.9837 152.502 88.7162 149.245 90.5841C139.014 96.3544 130.116 104.218 123.131 113.662C115.265 124.533 109.421 136.786 100.572 146.964C87.2945 162.314 67.0316 171.769 47.7032 165.69C40.0886 164.366 33.0641 160.462 26.5047 154.636Z" fill="#C0D8E0"/>
</svg>
