<svg width="132" height="98" viewBox="0 0 132 98" fill="none" xmlns="http://www.w3.org/2000/svg">
<path d="M0.0468504 -5.56624C0.579353 8.89707 7.74177 22.4417 16.1799 34.1322C25.1193 46.3529 36.1275 57.0591 48.7503 65.8092C74.6499 83.9024 105.512 93.4307 137.152 95.9066C145.081 98.2873 154.906 99.2676 161.19 94.6518C165.286 91.6214 166.234 86.5071 167.311 81.9698C168.572 76.5631 169.487 71.0876 170.05 65.574C170.688 59.5411 165.807 55.7992 159.932 55.8832C139.832 56.1689 119.831 51.4804 101.831 42.9996C92.9696 38.8136 84.6554 33.6412 77.0608 27.5896C69.9919 21.988 62.2209 15.4061 58.4056 7.2334C51.7347 -7.05066 58.0838 -23.917 66.6448 -36.1677C71.8645 -43.6459 78.1843 -50.7879 86.4644 -55.2804C94.487 -59.6328 103.756 -61.4421 112.797 -62.7137C135.955 -65.9409 159.536 -65.0599 182.362 -60.1145C186.809 -59.1679 192.31 -63.1898 192.485 -67.559C192.625 -71.6669 192.764 -75.7747 192.901 -79.8825C193.018 -83.3443 193.38 -86.8005 191.871 -90.0494C188.248 -97.8469 176.481 -97.8917 168.967 -98.9616C153.203 -101.236 137.304 -103.37 121.37 -104.182C92.0527 -105.678 61.1559 -101.863 37.0587 -84.4927C24.9457 -75.7654 16.0278 -63.9516 10.1702 -50.6254C4.03769 -36.7223 -0.503207 -20.7578 0.0468504 -5.56624Z" fill="#FAB600"/>
</svg>
