<svg width="33" height="32" viewBox="0 0 33 32" fill="none" xmlns="http://www.w3.org/2000/svg">
<path d="M14.8022 23.5928C15.3058 23.5928 15.6932 23.3908 15.9644 22.9868L23.7339 11.0005C23.828 10.8511 23.8971 10.7072 23.9414 10.5688C23.9857 10.4305 24.0078 10.2949 24.0078 10.1621C24.0078 9.82454 23.8944 9.54785 23.6675 9.33203C23.4461 9.11068 23.1639 9 22.8208 9C22.5828 9 22.3809 9.04704 22.2148 9.14111C22.0544 9.23519 21.9022 9.39844 21.7583 9.63086L14.769 20.6875L11.1914 16.1885C10.9258 15.8564 10.5965 15.6904 10.2036 15.6904C9.85498 15.6904 9.56722 15.8039 9.34033 16.0308C9.11344 16.2521 9 16.5343 9 16.8774C9 17.0324 9.0249 17.1818 9.07471 17.3257C9.13005 17.464 9.22412 17.6079 9.35693 17.7573L13.6484 23.0283C13.9583 23.4046 14.3429 23.5928 14.8022 23.5928Z" fill="white"/>
</svg>
