<svg width="12" height="7" viewBox="0 0 12 7" fill="none" xmlns="http://www.w3.org/2000/svg">
<path d="M6.00317 6.19344C6.16149 6.19344 6.3198 6.13011 6.42746 6.00979L11.329 0.98791C11.4367 0.880253 11.5 0.740933 11.5 0.582614C11.5 0.25331 11.253 0 10.9237 0C10.7654 0 10.6197 0.0633276 10.5121 0.164652L6.00317 4.7749L1.48791 0.164652C1.38659 0.0633276 1.24093 0 1.07628 0C0.746978 0 0.5 0.25331 0.5 0.582614C0.5 0.740933 0.563328 0.880253 0.670984 0.994243L5.57254 6.00979C5.69286 6.13011 5.83851 6.19344 6.00317 6.19344Z" fill="black"/>
</svg>
