<svg width="32" height="32" viewBox="0 0 32 32" fill="none" xmlns="http://www.w3.org/2000/svg">
<g clip-path="url(#clip0_206_1434)">
<path fill-rule="evenodd" clip-rule="evenodd" d="M16 25.1429C21.0495 25.1429 25.1429 21.0495 25.1429 16C25.1429 10.9506 21.0495 6.85718 16 6.85718C10.9505 6.85718 6.85714 10.9506 6.85714 16C6.85714 21.0495 10.9505 25.1429 16 25.1429ZM16 24C20.4183 24 24 20.4183 24 16C24 11.5818 20.4183 8.00003 16 8.00003C11.5817 8.00003 8 11.5818 8 16C8 20.4183 11.5817 24 16 24Z" fill="black"/>
<path d="M15.3168 17.0972C15.3118 16.854 15.3556 16.6122 15.4455 16.3861C15.5352 16.1651 15.6688 15.9647 15.8383 15.7969C16.0425 15.6006 16.2699 15.43 16.5156 15.289C16.7131 15.1663 16.899 15.0257 17.0709 14.8691C17.204 14.7415 17.3079 14.5867 17.3757 14.4153C17.4438 14.2383 17.476 14.0495 17.4705 13.86C17.4795 13.6278 17.4202 13.3981 17.2998 13.1995C17.1793 13.0008 17.0032 12.8419 16.7932 12.7425C16.5446 12.6219 16.2703 12.5638 15.9941 12.5732C15.7255 12.5672 15.459 12.6228 15.2152 12.7357C15.0036 12.8407 14.8254 13.0025 14.7005 13.203C14.5678 13.4062 14.4864 13.6387 14.4635 13.8803V13.9683H13.4476V13.8871C13.4753 13.4939 13.591 13.112 13.7862 12.7696C13.9872 12.4176 14.2828 12.129 14.6396 11.9366C15.0711 11.7255 15.5478 11.6232 16.0279 11.6386C16.4851 11.6362 16.9367 11.7382 17.3486 11.9366C17.7089 12.1087 18.0155 12.3756 18.2358 12.7086C18.4484 13.0372 18.5591 13.4212 18.5541 13.8126C18.5634 14.237 18.4454 14.6545 18.2154 15.0113C17.9781 15.3561 17.6684 15.645 17.3079 15.8579C17.0993 15.9765 16.904 16.1173 16.7255 16.2777C16.5926 16.3987 16.4905 16.5496 16.4275 16.718C16.3638 16.8913 16.3339 17.0752 16.3395 17.2598V17.6526H15.3168V17.0972ZM15.3168 20.1584C15.2541 20.0951 15.2044 20.02 15.1707 19.9375C15.137 19.855 15.1199 19.7667 15.1204 19.6775C15.119 19.5873 15.1357 19.4976 15.1694 19.4139C15.2031 19.3301 15.2532 19.254 15.3168 19.1899C15.3815 19.1275 15.4579 19.0787 15.5416 19.0461C15.6253 19.0136 15.7146 18.998 15.8044 19.0003C15.9841 19.0003 16.1563 19.0716 16.2833 19.1986C16.4103 19.3257 16.4817 19.4979 16.4817 19.6775C16.4822 19.7667 16.4651 19.855 16.4314 19.9375C16.3977 20.02 16.3481 20.0951 16.2853 20.1584C16.2234 20.2231 16.1487 20.274 16.0658 20.3079C15.983 20.3417 15.8939 20.3577 15.8044 20.3548C15.7142 20.3562 15.6245 20.3396 15.5408 20.3058C15.4571 20.2721 15.3809 20.222 15.3168 20.1584Z" fill="black"/>
</g>
<defs>
<clipPath id="clip0_206_1434">
<rect width="18.2857" height="18.2857" fill="white" transform="translate(6.85714 6.85718)"/>
</clipPath>
</defs>
</svg>
