<svg width="24" height="24" viewBox="0 0 24 24" fill="none" xmlns="http://www.w3.org/2000/svg">
<path d="M12.0001 20.3996C16.5954 20.3996 20.4001 16.5867 20.4001 11.9996C20.4001 7.40432 16.5872 3.59961 11.9919 3.59961C7.4048 3.59961 3.6001 7.40432 3.6001 11.9996C3.6001 16.5867 7.41304 20.3996 12.0001 20.3996ZM12.0001 18.9996C8.11304 18.9996 5.00833 15.8867 5.00833 11.9996C5.00833 8.11255 8.1048 4.99961 11.9919 4.99961C15.8789 4.99961 18.9919 8.11255 19.0001 11.9996C19.0083 15.8867 15.8872 18.9996 12.0001 18.9996ZM9.18363 15.4914C9.37304 15.4914 9.53774 15.4173 9.66127 15.2855L11.9919 12.9384L14.3389 15.2855C14.4625 15.409 14.6189 15.4914 14.8083 15.4914C15.1707 15.4914 15.4672 15.1867 15.4672 14.8243C15.4672 14.6349 15.4013 14.4784 15.2695 14.3549L12.9307 12.0161L15.2777 9.66079C15.4177 9.52079 15.4754 9.38079 15.4754 9.19961C15.4754 8.82902 15.1789 8.54079 14.8166 8.54079C14.6436 8.54079 14.5036 8.59843 14.3636 8.73843L11.9919 11.0937L9.6448 8.74667C9.52127 8.6149 9.37304 8.55726 9.18363 8.55726C8.82127 8.55726 8.5248 8.83726 8.5248 9.20785C8.5248 9.38902 8.59892 9.54549 8.72245 9.66902L11.0613 12.0161L8.72245 14.3631C8.59892 14.4784 8.5248 14.6431 8.5248 14.8243C8.5248 15.1867 8.82127 15.4914 9.18363 15.4914Z" fill="#FF7547"/>
</svg>
