<svg width="20" height="20" viewBox="0 0 20 20" fill="none" xmlns="http://www.w3.org/2000/svg">
<path d="M10 17C13.8294 17 17 13.8225 17 10C17 6.17059 13.8225 3 9.99314 3C6.17059 3 3 6.17059 3 10C3 13.8225 6.17745 17 10 17ZM10 15.8333C6.76078 15.8333 4.17353 13.2392 4.17353 10C4.17353 6.76078 6.75392 4.16667 9.99314 4.16667C13.2324 4.16667 15.8265 6.76078 15.8333 10C15.8402 13.2392 13.2392 15.8333 10 15.8333ZM9.2451 13.2598C9.47157 13.2598 9.66373 13.15 9.80098 12.9373L12.9373 8.00294C13.0127 7.87255 13.102 7.71471 13.102 7.56373C13.102 7.26177 12.8275 7.06275 12.5392 7.06275C12.3676 7.06275 12.1961 7.16569 12.0657 7.37157L9.21765 11.9353L7.86569 10.1922C7.70098 9.97255 7.55 9.91078 7.35784 9.91078C7.06275 9.91078 6.82941 10.151 6.82941 10.4598C6.82941 10.6039 6.89118 10.7549 6.98725 10.8853L8.66176 12.9373C8.83333 13.1637 9.01863 13.2598 9.2451 13.2598Z" fill="#480D94"/>
</svg>
