<svg width="32" height="32" viewBox="0 0 32 32" fill="none" xmlns="http://www.w3.org/2000/svg">
<g clip-path="url(#clip0_4_4327)">
<path d="M7 23.4756C7.0245 22.7221 7.23622 21.9865 7.61606 21.3352C8.07386 20.5245 8.67303 19.8023 9.38526 19.2027C10.2168 18.4995 11.166 17.9487 12.1891 17.5757C13.3827 17.1389 14.6462 16.9247 15.9171 16.9438C17.1827 16.9259 18.4408 17.1401 19.6292 17.5757C20.6523 17.9487 21.6015 18.4995 22.4331 19.2027C23.1432 19.8044 23.742 20.5262 24.2023 21.3352C24.5834 21.9888 24.7951 22.7273 24.8183 23.4835C24.8183 24.5024 24.0759 25.0079 22.5831 25.0079H9.21939C7.74243 25 7 24.4945 7 23.4756ZM22.9149 23.7994C23.0849 23.8192 23.2568 23.7831 23.4046 23.6968C23.4564 23.6544 23.4967 23.5996 23.5216 23.5374C23.5465 23.4753 23.5551 23.4078 23.5467 23.3413C23.5128 22.765 23.3306 22.2073 23.0175 21.7222C22.6331 21.0638 22.1296 20.4827 21.5327 20.0083C20.824 19.4306 20.023 18.9767 19.1632 18.6656C18.1159 18.3118 17.0142 18.146 15.9092 18.1759C14.8018 18.1592 13.7001 18.3384 12.6551 18.7051C11.7954 19.0162 10.9943 19.4701 10.2857 20.0478C9.6925 20.5105 9.18922 21.078 8.80079 21.7222C8.49614 22.2096 8.32206 22.7672 8.2953 23.3413C8.28692 23.4078 8.29558 23.4753 8.32045 23.5374C8.34531 23.5996 8.38559 23.6544 8.43747 23.6968C8.58851 23.7822 8.76254 23.8181 8.93506 23.7994H22.9149Z" fill="black"/>
<path d="M15.9092 8.18473C16.5094 8.18473 17.0961 8.36281 17.595 8.69642C18.0939 9.03003 18.4826 9.50417 18.712 10.0588C18.9413 10.6135 19.0009 11.2237 18.8832 11.8122C18.7655 12.4008 18.4759 12.9412 18.051 13.365C17.626 13.7889 17.0849 14.0771 16.496 14.1932C15.9072 14.3094 15.2971 14.2482 14.743 14.0174C14.189 13.7866 13.7159 13.3967 13.3836 12.8969C13.0512 12.3971 12.8747 11.8099 12.8763 11.2097C12.8784 10.4067 13.1988 9.63733 13.7674 9.07025C14.3359 8.50318 15.1062 8.18473 15.9092 8.18473ZM15.9092 7C15.0747 7 14.2589 7.24756 13.5652 7.71135C12.8714 8.17514 12.3308 8.83431 12.0118 9.60545C11.6928 10.3766 11.6098 11.225 11.7732 12.0434C11.9365 12.8617 12.339 13.6132 12.9297 14.2028C13.5203 14.7923 14.2725 15.1934 15.0912 15.3552C15.9099 15.517 16.7581 15.4324 17.5287 15.112C18.2992 14.7915 18.9574 14.2497 19.4199 13.5551C19.8823 12.8605 20.1284 12.0442 20.1268 11.2097C20.1247 10.0925 19.6794 9.02178 18.8887 8.23252C18.098 7.44327 17.0264 7 15.9092 7Z" fill="black"/>
</g>
<defs>
<clipPath id="clip0_4_4327">
<rect width="17.8183" height="18" fill="white" transform="translate(7 7)"/>
</clipPath>
</defs>
</svg>
